/* XPM */
static char *bc0b7d8a3d4d4e6f8424bafd2d7087c6PITud7x6dee8PcWp[] = {
/* columns rows colors chars-per-pixel */
"64 64 36 1 ",
"  c black",
". c #02071D",
"X c #2E1611",
"o c #0D2030",
"O c #243137",
"+ c #4F1507",
"@ c #6A321F",
"# c #493C2B",
"$ c #4F3C35",
"% c #2F484E",
"& c #3E4E54",
"* c #736150",
"= c #797064",
"- c #8A3622",
"; c #9F4833",
": c #825B31",
"> c #AA5C3D",
", c #B5703E",
"< c #B57E55",
"1 c #C16C5B",
"2 c #EB8931",
"3 c #C58843",
"4 c #CD9373",
"5 c #453191",
"6 c #005280",
"7 c #005784",
"8 c #1B6E83",
"9 c #4180A0",
"0 c gray71",
"q c #E39B8D",
"w c #F5B784",
"e c #98DCFF",
"r c #DDDDDD",
"t c #FFE9C5",
"y c #CBE8F7",
"u c white",
/* pixels */
"6666666666666666666666666666666666666666666666666666666666666666",
"6666666666666666666666666666666666666666666666666666666666666666",
"6699999999999999999999999999999999999999999999999999999999999966",
"6699999999999999999999999999999999999999999999999999999999999966",
"6699888888888eee888888888888888888888888888888888888888888889966",
"669989999999e9eye999999999999999999999999999eeee9999999999989966",
"669989999999e99ee99999999999999999999999999e9999e999999999989966",
"669989999999e999e9999999999999999999999999e999ey9e99999999989966",
"6699899999999eee99999999999999999@99999999e9999e9e99999999989966",
"669989999888888888@@888888888888@wX8888888e888888e88888999989966",
"669989999888888888@wX8888888888@w,,X888888e8888y8e88888999989966",
"66998999988888888@w,-X888888888@3X,X8888888e8888e888888999989966",
"66998999988888888@wX;X88888888+33X,-X8888888eeee8888888999989966",
"66998999988888888+w;X-X8   888+3X>>;X888888888888888888999989966",
"66998999988888888+3>X;X88     +3X;>,-X88888888888888888999989966",
"66998999988888888+3>-X-       @3X;><;X88888888888888888999989966",
"66998999988888888+3>;X;       +3X;;>,-X8888888888888888999989966",
"66998999988888888+,>          +3X-;>,;X8 88888888888888999989966",
"66998999ee88888888+3;        -;+3X;><;X   8888888888888999989966",
"6699899e9ye8888888X,        -,,;,,-<<X    8888888888888999989966",
"6699899e98e88888888        ;,,,,,,,,<X    8888888888888999989966",
"66998999ee888888888        ;,,<,,,,,X     88888888ee888999989966",
"6699899998888888888        -,<<,,,<X>-     888888e88e88999989966",
"669989999888888888@3     -  ,,<<,,<<;      88888e88y8e8999989966",
"669989999888888888XX3    ;;;,,,,,,<<,>     88888e8888e8999989966",
"66998999988e88888@w3,; - ;3,,,,,,<<<,,-    8 8888e88e88999989966",
"6699899998e8e888@w33;,;,;3,,,,<,,<<;+,,>     88888ee888999989966",
"66998999988e8888@33@,;t,,3@X,,,,,,<<;+,,;     888888888999989966",
"6699899998888888@@X>,<t<,3,>@+XX>>,<<X;,      888888888999989966",
"6699899998888888+3>,,ttt,33,,>>>>,,,<-X,-     888888888999989966",
"6699899998888888@++X,ttt,$XXXXXX,,,,,;X;,>    8 8888888999989966",
"669989999888888@yttu,ttt,yttuuuu,,,,,>+>>,-     8888888999989966",
"66998u999888888@yyXtX,t,,$yyXttX;,,,,>+>>,,;     888888999989966",
"66998ru99888888+1XXX;,,,,;$XXXX-;,,,,>+;>,>      888888999989966",
"669989009888888+11;;;,,,>;;;;--+;,,,,;-;>,<;     888888999989966",
"669989r098888888+++;>,,>>>+++++-,,,,,;->>,<<;    ..8888999989966",
"66998r0998888888+w>,<,<,,>>----,,,,,>+-;>,<,,>-  %%..88999989966",
"6699r0999888888@w3,<<<<<,,,,,,,,,,,>--->,,,,,,>  %%%%.8999989966",
"6699ru990888888@3,,,tt<<<,,,,,,,,,;;+-;>,,,,,,,-o%%%%%.999989966",
"669980r9988888@w,,ttt,,<,,,,>,,,>;-+-->>,,,,,,,;o%%%&%%..9989966",
"669980u9988888@3,tttt,,,,,,,,+-;-XX---;,,,>,<,,,-o%&&&%.%..89966",
"66990r9998888@3,tttt,,,,,,,,,-+XX----X>,,,<,,,,,;o%&&&%.%%%.9966",
"6690u99998888+,ttttt,,,,,,,,>;X------;,,<,<>,,,,;o%&&&%.%%%%..66",
"6690u9999888@wtttttt,,@,,,,,;X----X+>>,,,,<<;,<,;o&*&&&%.%%%%%.6",
"6690r9999888+ wttttt>>,@,,,;-XXX++-;>>,,,,,<>-,;-o=*&&&%o%&%%%%o",
"66990r99988+  wttttwX >@,X;-X%.---;;>,>,,,<<<;-;.o=**&&%.%&&&%%o",
"66998099988+ 1qtqtwX  >,,;XX%%.--;;;>>,>,,,<,>;..o=**&&%.%&*&&%o",
"66998999988+1qqqqt   ,,,;>-X%%%.--;;>>>,>>,,,;-.7o=**&&%o%&**&oO",
"6699809u988+;;qqqqq,,,;XX>;X%%%.--;;;>>>>>>>;-.o5o=**&&%o%&**&oO",
"66998990r888X1qqqq;;--X->;X%%*%.--;;;;>>>>>-..7.o=***&&%.%&**&oO",
"66998999r8888X11111;XX->-X.%**%..--;;;;;;;-.o75.o=***&&%.%&**&oO",
"66998999088888XXXXXXX-;XX*.=**%.5.--;;--...8o5o5o****&&%.%&**&oO",
"66998999988888888:4#XXX=**o=**%.5........o87.o55o****&%.&&**&oO%",
"669989999u8888888:t#88o=**%o=*%..o8.88.88o7o57o5o***&%.%&***&oOO",
"6699899998r08888:t4X88o**.*%o=*.5.7o77o77..5777oo=**%.%&&*&&%oOO",
"6699899999999999:t#99o=*..*%o=*%.5o.oo..o57o7o75o=**%.&&&&&%ooO%",
"669989999999999:t4X99o***.%o=**%.55777777787o77o&**&&%.&&%%ooo%%",
"669989999999999-2#99o=**%o%o=***.5o8o8o8o88o7o5o**&&%%...ooo...%",
"669989999999999--X99o=**%o%%o&**%.7o787.878875........=====&&&O.",
"66998888888888888888oo=*o%=*%o%*%.o7o7o7.8575.OO=%====*******&&O",
"66999999999999999999o=*%oo=**%o%*XXXXXXXXXoooo..O&%&*********&&O",
"6699999999999999999o=**%ooo&*&o&X>->>,,>,;X.8775.O&%&&&&&%&&&*&O",
"6666666666666666666666666666666X;->;X;>;-;;-.8ooo.O&%&&&&&%%&&%%",
"666666666666666666666666666666X-X,;X;,;-X;>;X.775.O&O%OO%%%O%OOO"
};
